# Blender 3.6.5
# www.blender.org
mtllib Force Field.mtl
o Force_Field
v -2.000000 0.000000 0.000000
v -1.500000 0.500000 0.000000
v -1.000000 0.000000 0.000000
v -1.500000 -0.500000 0.000000
v -1.246979 0.000000 1.563663
v -0.935235 0.500000 1.172747
v -0.623490 0.000000 0.781832
v -0.935235 -0.500000 1.172747
v 0.445042 0.000000 1.949856
v 0.333781 0.500000 1.462392
v 0.222521 0.000000 0.974928
v 0.333781 -0.500000 1.462392
v 1.801938 0.000000 0.867768
v 1.351453 0.500000 0.650826
v 0.900969 0.000000 0.433884
v 1.351453 -0.500000 0.650826
v 1.801938 0.000000 -0.867767
v 1.351454 0.500000 -0.650825
v 0.900969 0.000000 -0.433883
v 1.351454 -0.500000 -0.650825
v 0.445042 0.000000 -1.949856
v 0.333781 0.500000 -1.462392
v 0.222521 0.000000 -0.974928
v 0.333781 -0.500000 -1.462392
v -1.246979 0.000000 -1.563664
v -0.935234 0.500000 -1.172748
v -0.623489 0.000000 -0.781832
v -0.935234 -0.500000 -1.172748
vn -0.6694 0.6694 0.3223
vn 0.6694 0.6694 -0.3223
vn 0.6694 -0.6694 -0.3223
vn -0.6694 -0.6694 0.3223
vn -0.1653 0.6694 0.7243
vn 0.1653 0.6694 -0.7243
vn 0.1653 -0.6694 -0.7243
vn -0.1653 -0.6694 0.7243
vn 0.4632 0.6694 0.5809
vn -0.4632 0.6694 -0.5809
vn -0.4632 -0.6694 -0.5809
vn 0.4632 -0.6694 0.5809
vn 0.7429 0.6694 -0.0000
vn -0.7429 0.6694 -0.0000
vn -0.7429 -0.6694 -0.0000
vn 0.7429 -0.6694 -0.0000
vn 0.4632 0.6694 -0.5809
vn -0.4632 0.6694 0.5809
vn -0.4632 -0.6694 0.5809
vn 0.4632 -0.6694 -0.5809
vn -0.1653 0.6694 -0.7243
vn 0.1653 0.6694 0.7243
vn 0.1653 -0.6694 0.7243
vn -0.1653 -0.6694 -0.7243
vn -0.6694 0.6694 -0.3223
vn 0.6694 0.6694 0.3223
vn 0.6694 -0.6694 0.3223
vn -0.6694 -0.6694 -0.3223
vt 0.571429 0.500000
vt 0.714286 0.500000
vt 0.714286 0.750000
vt 0.571429 0.750000
vt 0.714286 1.000000
vt 0.571429 1.000000
vt 0.571429 0.000000
vt 0.714286 0.000000
vt 0.714286 0.250000
vt 0.571429 0.250000
vt 0.857143 0.500000
vt 0.857143 0.750000
vt 0.857143 1.000000
vt 0.857143 0.000000
vt 0.857143 0.250000
vt 1.000000 0.500000
vt 1.000000 0.750000
vt 1.000000 1.000000
vt 1.000000 0.000000
vt 1.000000 0.250000
vt -0.000000 0.500000
vt 0.142857 0.500000
vt 0.142857 0.750000
vt -0.000000 0.750000
vt 0.142857 1.000000
vt -0.000000 1.000000
vt -0.000000 0.000000
vt 0.142857 0.000000
vt 0.142857 0.250000
vt -0.000000 0.250000
vt 0.285714 0.500000
vt 0.285714 0.750000
vt 0.285714 1.000000
vt 0.285714 0.000000
vt 0.285714 0.250000
vt 0.428571 0.500000
vt 0.428571 0.750000
vt 0.428571 1.000000
vt 0.428571 0.000000
vt 0.428571 0.250000
s 0
f 1/1/1 5/2/1 6/3/1 2/4/1
f 2/4/2 6/3/2 7/5/2 3/6/2
f 3/7/3 7/8/3 8/9/3 4/10/3
f 4/10/4 8/9/4 5/2/4 1/1/4
f 5/2/5 9/11/5 10/12/5 6/3/5
f 6/3/6 10/12/6 11/13/6 7/5/6
f 7/8/7 11/14/7 12/15/7 8/9/7
f 8/9/8 12/15/8 9/11/8 5/2/8
f 9/11/9 13/16/9 14/17/9 10/12/9
f 10/12/10 14/17/10 15/18/10 11/13/10
f 11/14/11 15/19/11 16/20/11 12/15/11
f 12/15/12 16/20/12 13/16/12 9/11/12
f 13/21/13 17/22/13 18/23/13 14/24/13
f 14/24/14 18/23/14 19/25/14 15/26/14
f 15/27/15 19/28/15 20/29/15 16/30/15
f 16/30/16 20/29/16 17/22/16 13/21/16
f 17/22/17 21/31/17 22/32/17 18/23/17
f 18/23/18 22/32/18 23/33/18 19/25/18
f 19/28/19 23/34/19 24/35/19 20/29/19
f 20/29/20 24/35/20 21/31/20 17/22/20
f 21/31/21 25/36/21 26/37/21 22/32/21
f 22/32/22 26/37/22 27/38/22 23/33/22
f 23/34/23 27/39/23 28/40/23 24/35/23
f 24/35/24 28/40/24 25/36/24 21/31/24
f 25/36/25 1/1/25 2/4/25 26/37/25
f 26/37/26 2/4/26 3/6/26 27/38/26
f 27/39/27 3/7/27 4/10/27 28/40/27
f 28/40/28 4/10/28 1/1/28 25/36/28
